<svg id="Layer_1" data-name="Layer 1" xmlns="http://www.w3.org/2000/svg" viewBox="0 0 28.085 24.41"><defs><style>.cls-1{fill:#db9e2e;stroke:#db9e2e;stroke-miterlimit:10;stroke-width:0.75px;}</style></defs><g id="Isolation_Mode" data-name="Isolation Mode"><path class="cls-1" d="M14.415,17.465l.125.21a.256.256,0,0,1-.125.377L1.671,24a.276.276,0,0,1-.377-.124c-.041-.043-.041-.084-.041-.168a9.6,9.6,0,0,1,1.463-5.238,12.438,12.438,0,0,1,3.132-3.142c.084-.042.167-.084.251-.042L14.207,17.3a.276.276,0,0,1,.208.167ZM1.838,23.289,13.7,17.759,6.1,15.874a12.79,12.79,0,0,0-2.925,2.89,9.352,9.352,0,0,0-1.336,4.525Z"/><path class="cls-1" d="M14.039,17.675l.168-.294a.227.227,0,0,1,.208-.124l8.273-1.719a.312.312,0,0,1,.209.042,11.639,11.639,0,0,1,3.05,3.016,8.968,8.968,0,0,1,1.38,5.113c0,.084,0,.125-.042.168a.287.287,0,0,1-.376.124L14.165,18.052a.256.256,0,0,1-.126-.377Zm.752.084,11.951,5.53a8.325,8.325,0,0,0-1.254-4.4,11.7,11.7,0,0,0-2.8-2.766Z"/><path class="cls-1" d="M6.1,3.137A.289.289,0,0,1,5.932,2.8a.259.259,0,0,1,.334-.21l5.516,1.467a.3.3,0,0,1,.21.377.259.259,0,0,1-.335.209Z"/><path class="cls-1" d="M6.1,5.314a.314.314,0,0,1-.167-.375.289.289,0,0,1,.334-.211l5.516,1.51a.275.275,0,0,1,.21.335.259.259,0,0,1-.335.208Z"/><path class="cls-1" d="M6.1,7.452a.288.288,0,0,1-.167-.335.258.258,0,0,1,.334-.21l5.516,1.467a.3.3,0,0,1,.21.377.289.289,0,0,1-.335.209Z"/><path class="cls-1" d="M6.1,9.63a.316.316,0,0,1-.167-.377.289.289,0,0,1,.334-.21l5.516,1.509a.277.277,0,0,1,.21.336.258.258,0,0,1-.335.209Z"/><path class="cls-1" d="M21.811,2.591a.259.259,0,0,1,.335.21.288.288,0,0,1-.167.336L16.42,4.644a.256.256,0,0,1-.333-.209.3.3,0,0,1,.208-.377Z"/><path class="cls-1" d="M21.811,4.728a.289.289,0,0,1,.335.211.313.313,0,0,1-.167.375L16.42,6.781a.256.256,0,0,1-.333-.208.273.273,0,0,1,.208-.335Z"/><path class="cls-1" d="M21.811,6.907a.258.258,0,0,1,.335.21.286.286,0,0,1-.167.335L16.42,8.96a.286.286,0,0,1-.333-.209.3.3,0,0,1,.208-.377Z"/><path class="cls-1" d="M21.811,9.043a.289.289,0,0,1,.335.21.315.315,0,0,1-.167.377L16.42,11.1a.256.256,0,0,1-.333-.209.275.275,0,0,1,.208-.336Z"/><path class="cls-1" d="M9.944,16.335a.27.27,0,0,1,.376.084.265.265,0,0,1-.084.376L6.225,19.142a.287.287,0,0,1-.377-.127.275.275,0,0,1,.084-.377Z"/><path class="cls-1" d="M18.928,16.8a.248.248,0,0,1-.125-.376.269.269,0,0,1,.376-.084l4.01,2.3a.289.289,0,0,1,.127.377.325.325,0,0,1-.419.127Z"/><rect class="cls-1" x="9.484" y="19.77" width="9.527" height="0.544"/><path class="cls-1" d="M1.754,2.257l2.256.46a.244.244,0,0,1,.208.293l-.626,9.176,10.112,2.3.125-9.428a.286.286,0,0,1,.294-.292l.084.041a.235.235,0,0,1,.208.251l.042,12.529a.286.286,0,0,1-.292.293.147.147,0,0,1-.084-.042L.584,14.491A.315.315,0,0,1,.375,14.2l1-11.689c.043-.168.167-.293.334-.251Zm1.88.964L1.921,2.884l-.962,11.1,12.914,3.227V15.12L3.217,12.731a.29.29,0,0,1-.211-.335Z"/><path class="cls-1" d="M26.365,2.884l-1.755.337.628,9.175a.318.318,0,0,1-.251.335l-10.53,2.346v2.137l12.661-2.682Zm-2.131-.167,2.383-.46a.235.235,0,0,1,.292.251L27.7,14.743c.042.125-.083.251-.209.293L14.248,17.843a.146.146,0,0,0-.083.042.285.285,0,0,1-.292-.293V6.781a.284.284,0,0,1,.292-.292.313.313,0,0,1,.292.292l.083,7.71,10.111-2.3L23.984,3.01a.358.358,0,0,1,.25-.293Z"/><path class="cls-1" d="M4.051.579a11.568,11.568,0,0,1,5.517.3A16.754,16.754,0,0,1,14.29,3.261a.366.366,0,0,1,.125.252L14.29,14.868A.28.28,0,0,1,14,15.12h-.084l-10.7-2.43a.23.23,0,0,1-.211-.294L3.8.832a.271.271,0,0,1,.25-.253Zm5.35.839a10.554,10.554,0,0,0-5.016-.293L3.592,12.186l10.112,2.3.125-10.852A16.239,16.239,0,0,0,9.4,1.418Z"/><path class="cls-1" d="M23.859,1.125a10.545,10.545,0,0,0-5.014.293,15.168,15.168,0,0,0-4.43,2.221l.125,10.852,10.111-2.3ZM18.678.874a11.419,11.419,0,0,1,5.473-.3.313.313,0,0,1,.292.253L25.238,12.4c0,.167-.084.294-.209.294L14.29,15.12h-.042a.28.28,0,0,1-.292-.252L13.829,3.513a.369.369,0,0,1,.127-.252A16.166,16.166,0,0,1,18.678.874Z"/></g></svg>